<mxfile host="app.diagrams.net" agent="Mozilla/5.0 (Windows NT 10.0; Win64; x64) AppleWebKit/537.36 (KHTML, like Gecko) Chrome/131.0.0.0 Safari/537.36" version="26.0.5">
  <diagram name="Page-1" id="GNH7gj0Ez3tMmplC6e-H">
    <mxGraphModel dx="2585" dy="2263" grid="1" gridSize="10" guides="1" tooltips="1" connect="1" arrows="1" fold="1" page="1" pageScale="1" pageWidth="850" pageHeight="1100" math="0" shadow="0">
      <root>
        <mxCell id="0" />
        <mxCell id="1" parent="0" />
        <mxCell id="uP2NIDe03diG2JvJbAz2-5" value="&lt;b&gt;Student&lt;/b&gt;" style="swimlane;fontStyle=0;childLayout=stackLayout;horizontal=1;startSize=30;horizontalStack=0;resizeParent=1;resizeParentMax=0;resizeLast=0;collapsible=1;marginBottom=0;whiteSpace=wrap;html=1;fillColor=#FFFF33;" parent="1" vertex="1">
          <mxGeometry x="140" y="160" width="160" height="150" as="geometry" />
        </mxCell>
        <mxCell id="uP2NIDe03diG2JvJbAz2-7" value="&lt;span style=&quot;font-family: &amp;quot;Nunito Sans&amp;quot;, sans-serif; font-size: 14px; text-align: center;&quot;&gt;+ catalogViewing()&amp;nbsp;&lt;/span&gt;" style="text;strokeColor=none;fillColor=#0000FF;align=left;verticalAlign=middle;spacingLeft=4;spacingRight=4;overflow=hidden;points=[[0,0.5],[1,0.5]];portConstraint=eastwest;rotatable=0;whiteSpace=wrap;html=1;fontStyle=1" parent="uP2NIDe03diG2JvJbAz2-5" vertex="1">
          <mxGeometry y="30" width="160" height="30" as="geometry" />
        </mxCell>
        <mxCell id="uP2NIDe03diG2JvJbAz2-8" value="&lt;span style=&quot;font-family: &amp;quot;Nunito Sans&amp;quot;, sans-serif; font-size: 14px; text-align: center;&quot;&gt;+ search()&amp;nbsp;&lt;/span&gt;" style="text;strokeColor=none;fillColor=#0000FF;align=left;verticalAlign=middle;spacingLeft=4;spacingRight=4;overflow=hidden;points=[[0,0.5],[1,0.5]];portConstraint=eastwest;rotatable=0;whiteSpace=wrap;html=1;fontStyle=1" parent="uP2NIDe03diG2JvJbAz2-5" vertex="1">
          <mxGeometry y="60" width="160" height="30" as="geometry" />
        </mxCell>
        <mxCell id="uP2NIDe03diG2JvJbAz2-29" value="&lt;span style=&quot;font-family: &amp;quot;Nunito Sans&amp;quot;, sans-serif; font-size: 14px; text-align: center;&quot;&gt;+view&lt;/span&gt;&lt;span style=&quot;font-family: &amp;quot;Nunito Sans&amp;quot;, sans-serif; font-size: 14px; text-align: center;&quot;&gt;details&lt;/span&gt;&lt;span style=&quot;font-family: &amp;quot;Nunito Sans&amp;quot;, sans-serif; font-size: 14px; text-align: center;&quot;&gt;()&lt;/span&gt;" style="text;strokeColor=none;fillColor=#0000FF;align=left;verticalAlign=middle;spacingLeft=4;spacingRight=4;overflow=hidden;points=[[0,0.5],[1,0.5]];portConstraint=eastwest;rotatable=0;whiteSpace=wrap;html=1;fontStyle=1" parent="uP2NIDe03diG2JvJbAz2-5" vertex="1">
          <mxGeometry y="90" width="160" height="30" as="geometry" />
        </mxCell>
        <mxCell id="NZcXogk08UA5Sn9oeOJW-8" value="&lt;span style=&quot;font-family: &amp;quot;Nunito Sans&amp;quot;, sans-serif; font-size: 14px; text-align: center;&quot;&gt;+&lt;/span&gt;&lt;span style=&quot;text-align: center;&quot;&gt;&lt;font face=&quot;Nunito Sans, sans-serif&quot;&gt;&lt;span style=&quot;font-size: 14px;&quot;&gt;enrollCourse()&lt;/span&gt;&lt;/font&gt;&lt;/span&gt;" style="text;strokeColor=none;fillColor=#0000FF;align=left;verticalAlign=middle;spacingLeft=4;spacingRight=4;overflow=hidden;points=[[0,0.5],[1,0.5]];portConstraint=eastwest;rotatable=0;whiteSpace=wrap;html=1;fontStyle=1" parent="uP2NIDe03diG2JvJbAz2-5" vertex="1">
          <mxGeometry y="120" width="160" height="30" as="geometry" />
        </mxCell>
        <mxCell id="uP2NIDe03diG2JvJbAz2-9" value="Teacher" style="swimlane;fontStyle=1;childLayout=stackLayout;horizontal=1;startSize=30;horizontalStack=0;resizeParent=1;resizeParentMax=0;resizeLast=0;collapsible=1;marginBottom=0;whiteSpace=wrap;html=1;fillColor=#FFFF33;" parent="1" vertex="1">
          <mxGeometry x="340" y="160" width="140" height="120" as="geometry" />
        </mxCell>
        <mxCell id="uP2NIDe03diG2JvJbAz2-12" value="+ addCourse()" style="text;strokeColor=none;fillColor=#0000FF;align=left;verticalAlign=middle;spacingLeft=4;spacingRight=4;overflow=hidden;points=[[0,0.5],[1,0.5]];portConstraint=eastwest;rotatable=0;whiteSpace=wrap;html=1;fontStyle=1" parent="uP2NIDe03diG2JvJbAz2-9" vertex="1">
          <mxGeometry y="30" width="140" height="30" as="geometry" />
        </mxCell>
        <mxCell id="uP2NIDe03diG2JvJbAz2-33" value="+ updateCorse()" style="text;strokeColor=none;fillColor=#0000FF;align=left;verticalAlign=middle;spacingLeft=4;spacingRight=4;overflow=hidden;points=[[0,0.5],[1,0.5]];portConstraint=eastwest;rotatable=0;whiteSpace=wrap;html=1;fontStyle=1" parent="uP2NIDe03diG2JvJbAz2-9" vertex="1">
          <mxGeometry y="60" width="140" height="30" as="geometry" />
        </mxCell>
        <mxCell id="uP2NIDe03diG2JvJbAz2-34" value="+ deleteCorse()" style="text;strokeColor=none;fillColor=#0000FF;align=left;verticalAlign=middle;spacingLeft=4;spacingRight=4;overflow=hidden;points=[[0,0.5],[1,0.5]];portConstraint=eastwest;rotatable=0;whiteSpace=wrap;html=1;fontStyle=1" parent="uP2NIDe03diG2JvJbAz2-9" vertex="1">
          <mxGeometry y="90" width="140" height="30" as="geometry" />
        </mxCell>
        <mxCell id="uP2NIDe03diG2JvJbAz2-13" value="&lt;b&gt;User&lt;/b&gt;" style="swimlane;fontStyle=0;childLayout=stackLayout;horizontal=1;startSize=30;horizontalStack=0;resizeParent=1;resizeParentMax=0;resizeLast=0;collapsible=1;marginBottom=0;whiteSpace=wrap;html=1;fillColor=#FFFF33;" parent="1" vertex="1">
          <mxGeometry x="340" y="-240" width="140" height="300" as="geometry" />
        </mxCell>
        <mxCell id="NZcXogk08UA5Sn9oeOJW-7" value="#id&amp;nbsp;&lt;b&gt;&lt;font color=&quot;#ff0000&quot;&gt;int&lt;/font&gt;&lt;/b&gt;" style="text;strokeColor=none;fillColor=none;align=left;verticalAlign=middle;spacingLeft=4;spacingRight=4;overflow=hidden;points=[[0,0.5],[1,0.5]];portConstraint=eastwest;rotatable=0;whiteSpace=wrap;html=1;fontStyle=1" parent="uP2NIDe03diG2JvJbAz2-13" vertex="1">
          <mxGeometry y="30" width="140" height="30" as="geometry" />
        </mxCell>
        <mxCell id="uP2NIDe03diG2JvJbAz2-14" value="#username&amp;nbsp;&lt;b&gt;&lt;font color=&quot;#ff0000&quot;&gt;string&lt;/font&gt;&lt;/b&gt;" style="text;strokeColor=none;fillColor=none;align=left;verticalAlign=middle;spacingLeft=4;spacingRight=4;overflow=hidden;points=[[0,0.5],[1,0.5]];portConstraint=eastwest;rotatable=0;whiteSpace=wrap;html=1;fontStyle=1" parent="uP2NIDe03diG2JvJbAz2-13" vertex="1">
          <mxGeometry y="60" width="140" height="30" as="geometry" />
        </mxCell>
        <mxCell id="uP2NIDe03diG2JvJbAz2-15" value="#email&amp;nbsp;&lt;b&gt;&lt;font color=&quot;#ff0000&quot;&gt;string&lt;/font&gt;&lt;/b&gt;" style="text;strokeColor=none;fillColor=none;align=left;verticalAlign=middle;spacingLeft=4;spacingRight=4;overflow=hidden;points=[[0,0.5],[1,0.5]];portConstraint=eastwest;rotatable=0;whiteSpace=wrap;html=1;fontStyle=1" parent="uP2NIDe03diG2JvJbAz2-13" vertex="1">
          <mxGeometry y="90" width="140" height="30" as="geometry" />
        </mxCell>
        <mxCell id="uP2NIDe03diG2JvJbAz2-16" value="#password&amp;nbsp;&lt;b&gt;&lt;font color=&quot;#ff0000&quot;&gt;string&lt;/font&gt;&lt;/b&gt;" style="text;strokeColor=none;fillColor=none;align=left;verticalAlign=middle;spacingLeft=4;spacingRight=4;overflow=hidden;points=[[0,0.5],[1,0.5]];portConstraint=eastwest;rotatable=0;whiteSpace=wrap;html=1;fontStyle=1" parent="uP2NIDe03diG2JvJbAz2-13" vertex="1">
          <mxGeometry y="120" width="140" height="30" as="geometry" />
        </mxCell>
        <mxCell id="uP2NIDe03diG2JvJbAz2-32" value="#role&amp;nbsp;&lt;b&gt;&lt;font color=&quot;#ff0000&quot;&gt;string&lt;/font&gt;&lt;/b&gt;" style="text;strokeColor=none;fillColor=none;align=left;verticalAlign=middle;spacingLeft=4;spacingRight=4;overflow=hidden;points=[[0,0.5],[1,0.5]];portConstraint=eastwest;rotatable=0;whiteSpace=wrap;html=1;fontStyle=1" parent="uP2NIDe03diG2JvJbAz2-13" vertex="1">
          <mxGeometry y="150" width="140" height="30" as="geometry" />
        </mxCell>
        <mxCell id="dsV-4HmDQf4_PnrIq6ev-8" value="#status&amp;nbsp;&lt;b&gt;&lt;font color=&quot;#ff0000&quot;&gt;string&lt;/font&gt;&lt;/b&gt;" style="text;strokeColor=none;fillColor=none;align=left;verticalAlign=middle;spacingLeft=4;spacingRight=4;overflow=hidden;points=[[0,0.5],[1,0.5]];portConstraint=eastwest;rotatable=0;whiteSpace=wrap;html=1;fontStyle=1" vertex="1" parent="uP2NIDe03diG2JvJbAz2-13">
          <mxGeometry y="180" width="140" height="30" as="geometry" />
        </mxCell>
        <mxCell id="uP2NIDe03diG2JvJbAz2-2" value="&lt;b&gt;+ register()&amp;nbsp;&lt;/b&gt;" style="text;strokeColor=none;fillColor=#0000FF;align=left;verticalAlign=middle;spacingLeft=4;spacingRight=4;overflow=hidden;points=[[0,0.5],[1,0.5]];portConstraint=eastwest;rotatable=0;whiteSpace=wrap;html=1;" parent="uP2NIDe03diG2JvJbAz2-13" vertex="1">
          <mxGeometry y="210" width="140" height="30" as="geometry" />
        </mxCell>
        <mxCell id="uP2NIDe03diG2JvJbAz2-3" value="&lt;b&gt;+ login&lt;/b&gt;" style="text;strokeColor=none;fillColor=#0000FF;align=left;verticalAlign=middle;spacingLeft=4;spacingRight=4;overflow=hidden;points=[[0,0.5],[1,0.5]];portConstraint=eastwest;rotatable=0;whiteSpace=wrap;html=1;" parent="uP2NIDe03diG2JvJbAz2-13" vertex="1">
          <mxGeometry y="240" width="140" height="30" as="geometry" />
        </mxCell>
        <mxCell id="NZcXogk08UA5Sn9oeOJW-6" value="&lt;b&gt;+ logout() void&lt;/b&gt;" style="text;strokeColor=none;fillColor=#0000FF;align=left;verticalAlign=middle;spacingLeft=4;spacingRight=4;overflow=hidden;points=[[0,0.5],[1,0.5]];portConstraint=eastwest;rotatable=0;whiteSpace=wrap;html=1;" parent="uP2NIDe03diG2JvJbAz2-13" vertex="1">
          <mxGeometry y="270" width="140" height="30" as="geometry" />
        </mxCell>
        <mxCell id="_Hclr1ltEWzkq2dr5xU4-11" style="edgeStyle=orthogonalEdgeStyle;rounded=0;orthogonalLoop=1;jettySize=auto;html=1;" parent="1" source="uP2NIDe03diG2JvJbAz2-17" target="uP2NIDe03diG2JvJbAz2-13" edge="1">
          <mxGeometry relative="1" as="geometry">
            <Array as="points">
              <mxPoint x="600" y="130" />
              <mxPoint x="410" y="130" />
            </Array>
          </mxGeometry>
        </mxCell>
        <mxCell id="uP2NIDe03diG2JvJbAz2-17" value="&lt;b&gt;Admin&lt;/b&gt;" style="swimlane;fontStyle=0;childLayout=stackLayout;horizontal=1;startSize=30;horizontalStack=0;resizeParent=1;resizeParentMax=0;resizeLast=0;collapsible=1;marginBottom=0;whiteSpace=wrap;html=1;fillColor=#FFFF00;" parent="1" vertex="1">
          <mxGeometry x="520" y="170" width="160" height="150" as="geometry" />
        </mxCell>
        <mxCell id="uP2NIDe03diG2JvJbAz2-20" value="+ ValidationTeacher()" style="text;strokeColor=none;fillColor=#0000FF;align=left;verticalAlign=middle;spacingLeft=4;spacingRight=4;overflow=hidden;points=[[0,0.5],[1,0.5]];portConstraint=eastwest;rotatable=0;whiteSpace=wrap;html=1;fontStyle=1" parent="uP2NIDe03diG2JvJbAz2-17" vertex="1">
          <mxGeometry y="30" width="160" height="30" as="geometry" />
        </mxCell>
        <mxCell id="NZcXogk08UA5Sn9oeOJW-1" value="+ UserManage()" style="text;strokeColor=none;fillColor=#0000FF;align=left;verticalAlign=middle;spacingLeft=4;spacingRight=4;overflow=hidden;points=[[0,0.5],[1,0.5]];portConstraint=eastwest;rotatable=0;whiteSpace=wrap;html=1;fontStyle=1" parent="uP2NIDe03diG2JvJbAz2-17" vertex="1">
          <mxGeometry y="60" width="160" height="30" as="geometry" />
        </mxCell>
        <mxCell id="NZcXogk08UA5Sn9oeOJW-2" value="+ manageContent()" style="text;strokeColor=none;fillColor=#0000FF;align=left;verticalAlign=middle;spacingLeft=4;spacingRight=4;overflow=hidden;points=[[0,0.5],[1,0.5]];portConstraint=eastwest;rotatable=0;whiteSpace=wrap;html=1;fontStyle=1" parent="uP2NIDe03diG2JvJbAz2-17" vertex="1">
          <mxGeometry y="90" width="160" height="30" as="geometry" />
        </mxCell>
        <mxCell id="NZcXogk08UA5Sn9oeOJW-3" value="+ AccessStatistics()" style="text;strokeColor=none;fillColor=#0000FF;align=left;verticalAlign=middle;spacingLeft=4;spacingRight=4;overflow=hidden;points=[[0,0.5],[1,0.5]];portConstraint=eastwest;rotatable=0;whiteSpace=wrap;html=1;fontStyle=1" parent="uP2NIDe03diG2JvJbAz2-17" vertex="1">
          <mxGeometry y="120" width="160" height="30" as="geometry" />
        </mxCell>
        <mxCell id="uP2NIDe03diG2JvJbAz2-21" value="&lt;b&gt;Course&lt;/b&gt;" style="swimlane;fontStyle=0;childLayout=stackLayout;horizontal=1;startSize=30;horizontalStack=0;resizeParent=1;resizeParentMax=0;resizeLast=0;collapsible=1;marginBottom=0;whiteSpace=wrap;html=1;fillColor=#FFFF33;" parent="1" vertex="1">
          <mxGeometry x="340" y="460" width="140" height="300" as="geometry" />
        </mxCell>
        <mxCell id="NZcXogk08UA5Sn9oeOJW-28" value="- id&amp;nbsp;&lt;b&gt;&lt;font color=&quot;#ff0000&quot;&gt;int&lt;/font&gt;&lt;/b&gt;" style="text;strokeColor=none;fillColor=none;align=left;verticalAlign=middle;spacingLeft=4;spacingRight=4;overflow=hidden;points=[[0,0.5],[1,0.5]];portConstraint=eastwest;rotatable=0;whiteSpace=wrap;html=1;" parent="uP2NIDe03diG2JvJbAz2-21" vertex="1">
          <mxGeometry y="30" width="140" height="30" as="geometry" />
        </mxCell>
        <mxCell id="uP2NIDe03diG2JvJbAz2-22" value="- title&amp;nbsp;&lt;b&gt;&lt;font color=&quot;#ff0000&quot;&gt;string&lt;/font&gt;&lt;/b&gt;" style="text;strokeColor=none;fillColor=none;align=left;verticalAlign=middle;spacingLeft=4;spacingRight=4;overflow=hidden;points=[[0,0.5],[1,0.5]];portConstraint=eastwest;rotatable=0;whiteSpace=wrap;html=1;" parent="uP2NIDe03diG2JvJbAz2-21" vertex="1">
          <mxGeometry y="60" width="140" height="30" as="geometry" />
        </mxCell>
        <mxCell id="uP2NIDe03diG2JvJbAz2-23" value="- description&amp;nbsp;&lt;b&gt;&lt;font color=&quot;#ff0000&quot;&gt;string&lt;/font&gt;&lt;/b&gt;" style="text;strokeColor=none;fillColor=none;align=left;verticalAlign=middle;spacingLeft=4;spacingRight=4;overflow=hidden;points=[[0,0.5],[1,0.5]];portConstraint=eastwest;rotatable=0;whiteSpace=wrap;html=1;" parent="uP2NIDe03diG2JvJbAz2-21" vertex="1">
          <mxGeometry y="90" width="140" height="30" as="geometry" />
        </mxCell>
        <mxCell id="uP2NIDe03diG2JvJbAz2-24" value="- contenu&amp;nbsp;&lt;b&gt;&lt;font color=&quot;#ff0000&quot;&gt;string&lt;/font&gt;&lt;/b&gt;" style="text;strokeColor=none;fillColor=none;align=left;verticalAlign=middle;spacingLeft=4;spacingRight=4;overflow=hidden;points=[[0,0.5],[1,0.5]];portConstraint=eastwest;rotatable=0;whiteSpace=wrap;html=1;" parent="uP2NIDe03diG2JvJbAz2-21" vertex="1">
          <mxGeometry y="120" width="140" height="30" as="geometry" />
        </mxCell>
        <mxCell id="uP2NIDe03diG2JvJbAz2-30" value="- tag&amp;nbsp;&lt;b&gt;&lt;font color=&quot;#ff0000&quot;&gt;string&lt;/font&gt;&lt;/b&gt;" style="text;strokeColor=none;fillColor=none;align=left;verticalAlign=middle;spacingLeft=4;spacingRight=4;overflow=hidden;points=[[0,0.5],[1,0.5]];portConstraint=eastwest;rotatable=0;whiteSpace=wrap;html=1;" parent="uP2NIDe03diG2JvJbAz2-21" vertex="1">
          <mxGeometry y="150" width="140" height="30" as="geometry" />
        </mxCell>
        <mxCell id="uP2NIDe03diG2JvJbAz2-31" value="- category&amp;nbsp;&lt;b&gt;&lt;font color=&quot;#ff0000&quot;&gt;string&lt;/font&gt;&lt;/b&gt;" style="text;strokeColor=none;fillColor=none;align=left;verticalAlign=middle;spacingLeft=4;spacingRight=4;overflow=hidden;points=[[0,0.5],[1,0.5]];portConstraint=eastwest;rotatable=0;whiteSpace=wrap;html=1;" parent="uP2NIDe03diG2JvJbAz2-21" vertex="1">
          <mxGeometry y="180" width="140" height="30" as="geometry" />
        </mxCell>
        <mxCell id="NZcXogk08UA5Sn9oeOJW-10" value="+ addTag()" style="text;strokeColor=none;fillColor=#0000FF;align=left;verticalAlign=middle;spacingLeft=4;spacingRight=4;overflow=hidden;points=[[0,0.5],[1,0.5]];portConstraint=eastwest;rotatable=0;whiteSpace=wrap;html=1;fontStyle=1" parent="uP2NIDe03diG2JvJbAz2-21" vertex="1">
          <mxGeometry y="210" width="140" height="30" as="geometry" />
        </mxCell>
        <mxCell id="_Hclr1ltEWzkq2dr5xU4-20" value="+ addCategory()" style="text;strokeColor=none;fillColor=#0000FF;align=left;verticalAlign=middle;spacingLeft=4;spacingRight=4;overflow=hidden;points=[[0,0.5],[1,0.5]];portConstraint=eastwest;rotatable=0;whiteSpace=wrap;html=1;fontStyle=1" parent="uP2NIDe03diG2JvJbAz2-21" vertex="1">
          <mxGeometry y="240" width="140" height="30" as="geometry" />
        </mxCell>
        <mxCell id="NZcXogk08UA5Sn9oeOJW-11" value="+&amp;nbsp;getStatistics()" style="text;strokeColor=none;fillColor=#0000FF;align=left;verticalAlign=middle;spacingLeft=4;spacingRight=4;overflow=hidden;points=[[0,0.5],[1,0.5]];portConstraint=eastwest;rotatable=0;whiteSpace=wrap;html=1;fontStyle=1" parent="uP2NIDe03diG2JvJbAz2-21" vertex="1">
          <mxGeometry y="270" width="140" height="30" as="geometry" />
        </mxCell>
        <mxCell id="NZcXogk08UA5Sn9oeOJW-12" value="&lt;span style=&quot;text-align: left;&quot;&gt;&lt;b&gt;Category&lt;/b&gt;&lt;/span&gt;" style="swimlane;fontStyle=0;childLayout=stackLayout;horizontal=1;startSize=30;horizontalStack=0;resizeParent=1;resizeParentMax=0;resizeLast=0;collapsible=1;marginBottom=0;whiteSpace=wrap;html=1;fillColor=#FFFF33;" parent="1" vertex="1">
          <mxGeometry x="560" y="380" width="140" height="180" as="geometry" />
        </mxCell>
        <mxCell id="NZcXogk08UA5Sn9oeOJW-13" value="- id&amp;nbsp;&lt;b&gt;&lt;font color=&quot;#ff0000&quot;&gt;int&lt;/font&gt;&lt;/b&gt;" style="text;strokeColor=none;fillColor=none;align=left;verticalAlign=middle;spacingLeft=4;spacingRight=4;overflow=hidden;points=[[0,0.5],[1,0.5]];portConstraint=eastwest;rotatable=0;whiteSpace=wrap;html=1;" parent="NZcXogk08UA5Sn9oeOJW-12" vertex="1">
          <mxGeometry y="30" width="140" height="30" as="geometry" />
        </mxCell>
        <mxCell id="NZcXogk08UA5Sn9oeOJW-14" value="- name&amp;nbsp;&lt;b&gt;&lt;font color=&quot;#ff0000&quot;&gt;string&lt;/font&gt;&lt;/b&gt;" style="text;strokeColor=none;fillColor=none;align=left;verticalAlign=middle;spacingLeft=4;spacingRight=4;overflow=hidden;points=[[0,0.5],[1,0.5]];portConstraint=eastwest;rotatable=0;whiteSpace=wrap;html=1;" parent="NZcXogk08UA5Sn9oeOJW-12" vertex="1">
          <mxGeometry y="60" width="140" height="30" as="geometry" />
        </mxCell>
        <mxCell id="NZcXogk08UA5Sn9oeOJW-35" value="+&amp;nbsp;getName()" style="text;strokeColor=none;fillColor=#0000FF;align=left;verticalAlign=middle;spacingLeft=4;spacingRight=4;overflow=hidden;points=[[0,0.5],[1,0.5]];portConstraint=eastwest;rotatable=0;whiteSpace=wrap;html=1;fontStyle=1" parent="NZcXogk08UA5Sn9oeOJW-12" vertex="1">
          <mxGeometry y="90" width="140" height="30" as="geometry" />
        </mxCell>
        <mxCell id="NZcXogk08UA5Sn9oeOJW-36" value="+&amp;nbsp;setName()" style="text;strokeColor=none;fillColor=#0000FF;align=left;verticalAlign=middle;spacingLeft=4;spacingRight=4;overflow=hidden;points=[[0,0.5],[1,0.5]];portConstraint=eastwest;rotatable=0;whiteSpace=wrap;html=1;fontStyle=1" parent="NZcXogk08UA5Sn9oeOJW-12" vertex="1">
          <mxGeometry y="120" width="140" height="30" as="geometry" />
        </mxCell>
        <mxCell id="NZcXogk08UA5Sn9oeOJW-37" value="+&amp;nbsp;toString()" style="text;strokeColor=none;fillColor=#0000FF;align=left;verticalAlign=middle;spacingLeft=4;spacingRight=4;overflow=hidden;points=[[0,0.5],[1,0.5]];portConstraint=eastwest;rotatable=0;whiteSpace=wrap;html=1;fontStyle=1" parent="NZcXogk08UA5Sn9oeOJW-12" vertex="1">
          <mxGeometry y="150" width="140" height="30" as="geometry" />
        </mxCell>
        <mxCell id="NZcXogk08UA5Sn9oeOJW-20" value="&lt;b&gt;Tag&lt;/b&gt;" style="swimlane;fontStyle=0;childLayout=stackLayout;horizontal=1;startSize=30;horizontalStack=0;resizeParent=1;resizeParentMax=0;resizeLast=0;collapsible=1;marginBottom=0;whiteSpace=wrap;html=1;fillColor=#FFFF33;" parent="1" vertex="1">
          <mxGeometry x="133" y="480" width="140" height="180" as="geometry" />
        </mxCell>
        <mxCell id="NZcXogk08UA5Sn9oeOJW-21" value="- id&amp;nbsp;&lt;b&gt;&lt;font color=&quot;#ff0000&quot;&gt;int&lt;/font&gt;&lt;/b&gt;" style="text;strokeColor=none;fillColor=none;align=left;verticalAlign=middle;spacingLeft=4;spacingRight=4;overflow=hidden;points=[[0,0.5],[1,0.5]];portConstraint=eastwest;rotatable=0;whiteSpace=wrap;html=1;" parent="NZcXogk08UA5Sn9oeOJW-20" vertex="1">
          <mxGeometry y="30" width="140" height="30" as="geometry" />
        </mxCell>
        <mxCell id="NZcXogk08UA5Sn9oeOJW-22" value="- name&amp;nbsp;&lt;b&gt;&lt;font color=&quot;#ff0000&quot;&gt;string&lt;/font&gt;&lt;/b&gt;" style="text;strokeColor=none;fillColor=none;align=left;verticalAlign=middle;spacingLeft=4;spacingRight=4;overflow=hidden;points=[[0,0.5],[1,0.5]];portConstraint=eastwest;rotatable=0;whiteSpace=wrap;html=1;" parent="NZcXogk08UA5Sn9oeOJW-20" vertex="1">
          <mxGeometry y="60" width="140" height="30" as="geometry" />
        </mxCell>
        <mxCell id="NZcXogk08UA5Sn9oeOJW-29" value="+&amp;nbsp;getName()" style="text;strokeColor=none;fillColor=#0000FF;align=left;verticalAlign=middle;spacingLeft=4;spacingRight=4;overflow=hidden;points=[[0,0.5],[1,0.5]];portConstraint=eastwest;rotatable=0;whiteSpace=wrap;html=1;fontStyle=1" parent="NZcXogk08UA5Sn9oeOJW-20" vertex="1">
          <mxGeometry y="90" width="140" height="30" as="geometry" />
        </mxCell>
        <mxCell id="NZcXogk08UA5Sn9oeOJW-30" value="+&amp;nbsp;setName()" style="text;strokeColor=none;fillColor=#0000FF;align=left;verticalAlign=middle;spacingLeft=4;spacingRight=4;overflow=hidden;points=[[0,0.5],[1,0.5]];portConstraint=eastwest;rotatable=0;whiteSpace=wrap;html=1;fontStyle=1" parent="NZcXogk08UA5Sn9oeOJW-20" vertex="1">
          <mxGeometry y="120" width="140" height="30" as="geometry" />
        </mxCell>
        <mxCell id="NZcXogk08UA5Sn9oeOJW-31" value="+&amp;nbsp;toString()" style="text;strokeColor=none;fillColor=#0000FF;align=left;verticalAlign=middle;spacingLeft=4;spacingRight=4;overflow=hidden;points=[[0,0.5],[1,0.5]];portConstraint=eastwest;rotatable=0;whiteSpace=wrap;html=1;fontStyle=1" parent="NZcXogk08UA5Sn9oeOJW-20" vertex="1">
          <mxGeometry y="150" width="140" height="30" as="geometry" />
        </mxCell>
        <mxCell id="NZcXogk08UA5Sn9oeOJW-40" value="1" style="text;strokeColor=none;align=center;fillColor=none;html=1;verticalAlign=middle;whiteSpace=wrap;rounded=0;" parent="1" vertex="1">
          <mxGeometry x="480" y="430" width="10" height="10" as="geometry" />
        </mxCell>
        <mxCell id="NZcXogk08UA5Sn9oeOJW-42" value="*" style="text;strokeColor=none;align=center;fillColor=none;html=1;verticalAlign=middle;whiteSpace=wrap;rounded=0;" parent="1" vertex="1">
          <mxGeometry x="550" y="397" width="10" height="10" as="geometry" />
        </mxCell>
        <mxCell id="NZcXogk08UA5Sn9oeOJW-43" value="*" style="text;strokeColor=none;align=center;fillColor=none;html=1;verticalAlign=middle;whiteSpace=wrap;rounded=0;" parent="1" vertex="1">
          <mxGeometry x="273" y="490" width="10" height="10" as="geometry" />
        </mxCell>
        <mxCell id="NZcXogk08UA5Sn9oeOJW-44" value="*" style="text;strokeColor=none;align=center;fillColor=none;html=1;verticalAlign=middle;whiteSpace=wrap;rounded=0;" parent="1" vertex="1">
          <mxGeometry x="330" y="525" width="10" height="10" as="geometry" />
        </mxCell>
        <mxCell id="NZcXogk08UA5Sn9oeOJW-48" value="1" style="text;strokeColor=none;align=center;fillColor=none;html=1;verticalAlign=middle;whiteSpace=wrap;rounded=0;" parent="1" vertex="1">
          <mxGeometry x="415" y="444" width="10" height="10" as="geometry" />
        </mxCell>
        <mxCell id="NZcXogk08UA5Sn9oeOJW-49" value="*" style="text;strokeColor=none;align=center;fillColor=none;html=1;verticalAlign=middle;whiteSpace=wrap;rounded=0;" parent="1" vertex="1">
          <mxGeometry x="415" y="283" width="10" height="10" as="geometry" />
        </mxCell>
        <mxCell id="_Hclr1ltEWzkq2dr5xU4-2" value="*" style="text;strokeColor=none;align=center;fillColor=none;html=1;verticalAlign=middle;whiteSpace=wrap;rounded=0;" parent="1" vertex="1">
          <mxGeometry x="336" y="440" width="10" height="10" as="geometry" />
        </mxCell>
        <mxCell id="_Hclr1ltEWzkq2dr5xU4-3" value="*" style="text;strokeColor=none;align=center;fillColor=none;html=1;verticalAlign=middle;whiteSpace=wrap;rounded=0;" parent="1" vertex="1">
          <mxGeometry x="221" y="312" width="10" height="10" as="geometry" />
        </mxCell>
        <mxCell id="_Hclr1ltEWzkq2dr5xU4-4" value="" style="endArrow=diamondThin;endFill=0;endSize=24;html=1;rounded=0;entryX=0;entryY=0;entryDx=0;entryDy=0;" parent="1" source="dsV-4HmDQf4_PnrIq6ev-11" target="uP2NIDe03diG2JvJbAz2-21" edge="1">
          <mxGeometry width="160" relative="1" as="geometry">
            <mxPoint x="380" y="320" as="sourcePoint" />
            <mxPoint x="540" y="320" as="targetPoint" />
          </mxGeometry>
        </mxCell>
        <mxCell id="_Hclr1ltEWzkq2dr5xU4-7" value="" style="endArrow=diamondThin;endFill=0;endSize=24;html=1;rounded=0;exitX=1;exitY=0;exitDx=0;exitDy=0;entryX=0;entryY=0;entryDx=0;entryDy=0;" parent="1" source="uP2NIDe03diG2JvJbAz2-21" target="NZcXogk08UA5Sn9oeOJW-12" edge="1">
          <mxGeometry width="160" relative="1" as="geometry">
            <mxPoint x="290" y="350" as="sourcePoint" />
            <mxPoint x="510" y="350" as="targetPoint" />
          </mxGeometry>
        </mxCell>
        <mxCell id="_Hclr1ltEWzkq2dr5xU4-9" style="edgeStyle=orthogonalEdgeStyle;rounded=0;orthogonalLoop=1;jettySize=auto;html=1;entryX=0.444;entryY=0.983;entryDx=0;entryDy=0;entryPerimeter=0;" parent="1" source="uP2NIDe03diG2JvJbAz2-5" target="NZcXogk08UA5Sn9oeOJW-6" edge="1">
          <mxGeometry relative="1" as="geometry">
            <Array as="points">
              <mxPoint x="220" y="130" />
              <mxPoint x="410" y="130" />
              <mxPoint x="410" y="60" />
            </Array>
          </mxGeometry>
        </mxCell>
        <mxCell id="_Hclr1ltEWzkq2dr5xU4-10" style="edgeStyle=orthogonalEdgeStyle;rounded=0;orthogonalLoop=1;jettySize=auto;html=1;entryX=0.5;entryY=1;entryDx=0;entryDy=0;entryPerimeter=0;" parent="1" source="uP2NIDe03diG2JvJbAz2-9" target="NZcXogk08UA5Sn9oeOJW-6" edge="1">
          <mxGeometry relative="1" as="geometry" />
        </mxCell>
        <mxCell id="_Hclr1ltEWzkq2dr5xU4-19" value="" style="endArrow=diamondThin;endFill=0;endSize=24;html=1;rounded=0;exitX=0;exitY=0;exitDx=0;exitDy=0;entryX=1;entryY=0;entryDx=0;entryDy=0;" parent="1" source="uP2NIDe03diG2JvJbAz2-21" target="NZcXogk08UA5Sn9oeOJW-20" edge="1">
          <mxGeometry width="160" relative="1" as="geometry">
            <mxPoint x="490" y="440" as="sourcePoint" />
            <mxPoint x="570" y="390" as="targetPoint" />
          </mxGeometry>
        </mxCell>
        <mxCell id="dsV-4HmDQf4_PnrIq6ev-7" value="" style="endArrow=none;dashed=1;html=1;rounded=0;entryX=0.5;entryY=0;entryDx=0;entryDy=0;" edge="1" parent="1" source="uP2NIDe03diG2JvJbAz2-9" target="uP2NIDe03diG2JvJbAz2-21">
          <mxGeometry width="50" height="50" relative="1" as="geometry">
            <mxPoint x="410" y="280" as="sourcePoint" />
            <mxPoint x="416" y="360" as="targetPoint" />
          </mxGeometry>
        </mxCell>
        <mxCell id="dsV-4HmDQf4_PnrIq6ev-13" value="" style="endArrow=diamondThin;endFill=0;endSize=24;html=1;rounded=0;entryX=0;entryY=0;entryDx=0;entryDy=0;" edge="1" parent="1" source="uP2NIDe03diG2JvJbAz2-5" target="dsV-4HmDQf4_PnrIq6ev-11">
          <mxGeometry width="160" relative="1" as="geometry">
            <mxPoint x="260" y="310" as="sourcePoint" />
            <mxPoint x="340" y="460" as="targetPoint" />
          </mxGeometry>
        </mxCell>
        <mxCell id="dsV-4HmDQf4_PnrIq6ev-11" value="&lt;span style=&quot;text-align: left;&quot;&gt;&lt;b&gt;Category&lt;/b&gt;&lt;/span&gt;" style="swimlane;fontStyle=0;childLayout=stackLayout;horizontal=1;startSize=30;horizontalStack=0;resizeParent=1;resizeParentMax=0;resizeLast=0;collapsible=1;marginBottom=0;whiteSpace=wrap;html=1;fillColor=#FFFF33;" vertex="1" parent="1">
          <mxGeometry x="220" y="360" width="140" height="60" as="geometry" />
        </mxCell>
        <mxCell id="dsV-4HmDQf4_PnrIq6ev-12" value="- date_d&#39;inscription&amp;nbsp;&lt;b&gt;&lt;font color=&quot;#ff0000&quot;&gt;Date&lt;/font&gt;&lt;/b&gt;" style="text;strokeColor=none;fillColor=none;align=left;verticalAlign=middle;spacingLeft=4;spacingRight=4;overflow=hidden;points=[[0,0.5],[1,0.5]];portConstraint=eastwest;rotatable=0;whiteSpace=wrap;html=1;" vertex="1" parent="dsV-4HmDQf4_PnrIq6ev-11">
          <mxGeometry y="30" width="140" height="30" as="geometry" />
        </mxCell>
      </root>
    </mxGraphModel>
  </diagram>
</mxfile>
